<?xml version="1.0" encoding="utf-8"?>
<!-- Generator: Adobe Illustrator 16.0.0, SVG Export Plug-In . SVG Version: 6.00 Build 0)  -->
<!DOCTYPE svg PUBLIC "-//W3C//DTD SVG 1.1//EN" "http://www.w3.org/Graphics/SVG/1.1/DTD/svg11.dtd">
<svg version="1.1" id="Calque_1" xmlns="http://www.w3.org/2000/svg" xmlns:xlink="http://www.w3.org/1999/xlink" x="0px" y="0px"
	 width="100px" height="100px" viewBox="0 0 100 100" style="enable-background:new 0 0 100 100;" xml:space="preserve">
<style type="text/css">
<![CDATA[
	.st0{fill:none;stroke:#000000;stroke-width:2;stroke-linecap:round;stroke-linejoin:round;stroke-miterlimit:10;}
]]>
</style>
<path id="file" class="st0" d="M52.5,19.501c0,0,0.25,8.416,0.25,11.749s-0.375,5.374-0.375,5.374s4.46-0.427,9.792-0.29
	c6.5,0.167,17.5,2.167,5-11c-8.727-9.192-9.673-11.5-14.667-11.5c-8.762,0-7.754,0.137-31.388,0.133c0,0,1.086,31.516,1.086,41.297
	c0,9.779-0.409,31.398-0.409,31.398S38.226,86,48.549,86C58.873,86,73,86,73,86s-0.271-24.471-0.271-32.076
	s-0.562-11.551-0.562-11.551"/>
</svg>
