<?xml version="1.0" encoding="utf-8"?>
<!-- Generator: Adobe Illustrator 16.0.0, SVG Export Plug-In . SVG Version: 6.00 Build 0)  -->
<!DOCTYPE svg PUBLIC "-//W3C//DTD SVG 1.1//EN" "http://www.w3.org/Graphics/SVG/1.1/DTD/svg11.dtd">
<svg version="1.1" id="Calque_1" xmlns="http://www.w3.org/2000/svg" xmlns:xlink="http://www.w3.org/1999/xlink" x="0px" y="0px"
	 width="84.396px" height="76.949px" viewBox="0 0 84.396 76.949" style="enable-background:new 0 0 84.396 76.949;"
	 xml:space="preserve">
<style type="text/css">
<![CDATA[
	.st0{fill:none;stroke:#010202;stroke-width:2;stroke-linecap:round;stroke-linejoin:round;stroke-miterlimit:10;}
]]>
</style>
<path id="hi" class="st0" d="M15.455,40.385c0,0,18.151,1.36,23.915-19.294c4.295-15.391-7.874-13.959-12.885,0.359
	c-5.01,14.316-6.443,37.762-6.443,37.762s2.425-15.371,8.412-18.435c7.696-3.937,1.789,9.665,6.621,15.571
	c5.779,7.063,12.17-15.571,12.17-15.571s-5.708,16.759,5.011,17.718c11.991,1.075,22.322-10.979,18.614-28.098
	c-4.654-21.477-24.854-12.544-20.259-6.18c5.064,7.012,15.47-8.996,1.824-18.339C24.317-13.372-15.027,28.31,7.872,61.718
	c16.994,24.791,54.585,5.728,54.585,5.728s2.147,3.577,9.127,6.203c7.964,2.995,11.812,2.206,11.812,2.206s-3.579-2.565-8.232-7.934
	c-4.652-5.369-4.832-8.888-4.832-8.888"/>
</svg>
