<svg enable-background="new 0 0 84.396 76.949" height="76.949" viewBox="0 0 84.396 76.949" width="84.396" xmlns="http://www.w3.org/2000/svg"><path d="m15.455 40.385s18.151 1.36 23.915-19.294c4.295-15.391-7.874-13.959-12.885.359-5.01 14.316-6.443 37.762-6.443 37.762s2.425-15.371 8.412-18.435c7.696-3.937 1.789 9.665 6.621 15.571 5.779 7.063 12.17-15.571 12.17-15.571s-5.708 16.759 5.011 17.718c11.991 1.075 22.322-10.979 18.614-28.098-4.654-21.477-24.854-12.544-20.259-6.18 5.064 7.012 15.47-8.996 1.824-18.339-28.118-19.25-67.462 22.432-44.563 55.84 16.994 24.791 54.585 5.728 54.585 5.728s2.147 3.577 9.127 6.203c7.964 2.995 11.812 2.206 11.812 2.206s-3.579-2.565-8.232-7.934c-4.652-5.369-4.832-8.888-4.832-8.888" style="fill:none;stroke:#010202;stroke-width:2;stroke-linecap:round;stroke-linejoin:round;stroke-miterlimit:10"/></svg>