<svg enable-background="new 0 0 100 100" height="100" viewBox="0 0 100 100" width="100" xmlns="http://www.w3.org/2000/svg"><path d="m56.165 89.71s-1.495 2.124-9.004 2.124c-7.657 0-14.202-7.629-1.838-7.288 16.048.443 24.074-5.521 6.036-6.257-24.347-.994-29.302-9.342-4.198-8.199 25.622 1.169 25.843-5.346 13.156-6.834-14.426-1.689-8.742-27.201 1.791-25.898 7.141.882 6.699 10.085-14.797 10.085-17.08 0-18.994-11.042-11.043-10.38 8.659.722 10.809 24.445-1.473 25.619-15.79 1.51-27.936-25.776-8.657-46.379 22.633-24.188 71.181 4.738 46.724 41.654" style="fill:none;stroke:#000;stroke-width:2;stroke-linecap:round;stroke-linejoin:round;stroke-miterlimit:10"/></svg>