<?xml version="1.0" encoding="utf-8"?>
<!-- Generator: Adobe Illustrator 16.0.0, SVG Export Plug-In . SVG Version: 6.00 Build 0)  -->
<!DOCTYPE svg PUBLIC "-//W3C//DTD SVG 1.1//EN" "http://www.w3.org/Graphics/SVG/1.1/DTD/svg11.dtd">
<svg version="1.1" id="Calque_1" xmlns="http://www.w3.org/2000/svg" xmlns:xlink="http://www.w3.org/1999/xlink" x="0px" y="0px"
	 width="100px" height="100px" viewBox="0 0 100 100" style="enable-background:new 0 0 100 100;" xml:space="preserve">
<style type="text/css">
<![CDATA[
	.st0{fill:none;stroke:#000000;stroke-width:2;stroke-linecap:round;stroke-linejoin:round;stroke-miterlimit:10;}
]]>
</style>
<path id="bulb" class="st0" d="M56.165,89.71c0,0-1.495,2.124-9.004,2.124c-7.657,0-14.202-7.629-1.838-7.288
	c16.048,0.443,24.074-5.521,6.036-6.257c-24.347-0.994-29.302-9.342-4.198-8.199c25.622,1.169,25.843-5.346,13.156-6.834
	c-14.426-1.689-8.742-27.201,1.791-25.898c7.141,0.882,6.699,10.085-14.797,10.085c-17.08,0-18.994-11.042-11.043-10.38
	c8.659,0.722,10.809,24.445-1.473,25.619c-15.79,1.51-27.936-25.776-8.657-46.379c22.633-24.188,71.181,4.738,46.724,41.654"/>
</svg>
