<?xml version="1.0" encoding="utf-8"?>
<!-- Generator: Adobe Illustrator 16.0.0, SVG Export Plug-In . SVG Version: 6.00 Build 0)  -->
<!DOCTYPE svg PUBLIC "-//W3C//DTD SVG 1.1//EN" "http://www.w3.org/Graphics/SVG/1.1/DTD/svg11.dtd">
<svg version="1.1" id="Calque_1" xmlns="http://www.w3.org/2000/svg" xmlns:xlink="http://www.w3.org/1999/xlink" x="0px" y="0px"
	 width="49.579px" height="85.923px" viewBox="0 0 49.579 85.923" style="enable-background:new 0 0 49.579 85.923;"
	 xml:space="preserve">
<style type="text/css">
<![CDATA[
	.st0{fill:none;stroke:#010202;stroke-width:2;stroke-linecap:round;stroke-linejoin:round;stroke-miterlimit:10;}
]]>
</style>
<path id="phone" class="st0" d="M11.934,69.984c0,0,18.844-0.465,18.844,5.535s-8.962,6-8.962,0c0-5,14.626-3.75,17.407-5.737
	c4.137-2.958,3.619-36.175,3.619-48.586c0-12.408-6.205-11.566-17.681-11.566S7.338,8.22,7.338,15.114
	c0,6.895-1.38,50.292-1.38,61.667c0,9.909,28.267,7.994,36.116,7.994c7.849,0,6.399-49.384,6.399-65.646
	c0-16.26-5.204-17.861-20.799-17.861S8.371-0.792,4.234,6.51C0.098,13.813,2.01,43.712,1.133,66.446
	c-0.361,9.381-0.094,13.543,2.164,15.746c2.489,2.426,4.472,2.723,4.472,2.723"/>
</svg>
