<?xml version="1.0" encoding="utf-8"?>
<!-- Generator: Adobe Illustrator 16.0.0, SVG Export Plug-In . SVG Version: 6.00 Build 0)  -->
<!DOCTYPE svg PUBLIC "-//W3C//DTD SVG 1.1//EN" "http://www.w3.org/Graphics/SVG/1.1/DTD/svg11.dtd">
<svg version="1.1" id="Calque_1" xmlns="http://www.w3.org/2000/svg" xmlns:xlink="http://www.w3.org/1999/xlink" x="0px" y="0px"
	 width="64.167px" height="94.712px" viewBox="0 0 64.167 94.712" style="enable-background:new 0 0 64.167 94.712;"
	 xml:space="preserve">
<style type="text/css">
<![CDATA[
	.st0{fill:none;stroke:#010202;stroke-width:2;stroke-linecap:round;stroke-linejoin:round;stroke-miterlimit:10;}
]]>
</style>
<path id="puzzle" class="st0" d="M12.068,48.826c0,0-2.938-10.27,3.563-8.934c5.534,1.139,8.643,0.328,8.643-6.14
	c0-6.47-4.474-7.354-8.339-5.838c-4.58,1.796-5.181,0.151-5.181-7.328c0-8.214,4.043-6.268,10.614-6.268
	c1.582,0,5.256-0.81,3.581-3.447C23.315,8.297,21.364,1,30.871,1c11.203,0,6.582,8.016,5.554,10.363
	c-1.208,2.753,2.818,2.562,4.958,2.552c5.535-0.026,9.583-1.163,9.583,5.736c0,6.898,0.069,8.801-5.008,7.581
	c-5.788-1.389-7.733,2.274-7.657,7.052c0.076,4.774,2.805,6.747,8.036,5.078c5.746-1.831,6.292,13.192,1.895,13.192
	c-8.339,0-13.728,1.858-11.22,5.837c2.199,3.487,3.031,9.553-5.231,9.553c-9.401,0-7.05-6.142-5.762-9.249
	c2.221-5.356-3.412-5.459-8.719-5.459c-5.307,0-4.928,1.743-4.473,7.354c0.272,3.344,2.275,9.022-3.185,6.142
	C6.814,65.238,1,65.671,1,73.403c0,7.581,6.576,5.654,10.766,4.396c3.033-0.909,0.986,4.702,0.986,9.023
	c0,6.898,2.123,6.443,10.386,6.443c8.794,0-5.156-11.522,8.643-11.522c15.314,0-0.909,11.522,9.552,11.825
	c8.943,0.26,10.008,1.062,10.008-7.581c0-12.13,0.152-7.96,4.549-6.367c4.398,1.592,7.278-1.748,7.278-7.208
	c0-7.58-3.64-7.348-7.431-5.983c-5.009,1.803-5.352-0.155-5.154-9.549"/>
</svg>
