<?xml version="1.0" encoding="utf-8"?>
<!-- Generator: Adobe Illustrator 16.0.0, SVG Export Plug-In . SVG Version: 6.00 Build 0)  -->
<!DOCTYPE svg PUBLIC "-//W3C//DTD SVG 1.1//EN" "http://www.w3.org/Graphics/SVG/1.1/DTD/svg11.dtd">
<svg version="1.1" id="Calque_1" xmlns="http://www.w3.org/2000/svg" xmlns:xlink="http://www.w3.org/1999/xlink" x="0px" y="0px"
	 width="100px" height="100px" viewBox="0 0 100 100" style="enable-background:new 0 0 100 100;" xml:space="preserve">
<style type="text/css">
<![CDATA[
	.st0{fill:none;stroke:#000000;stroke-width:2;stroke-linecap:round;stroke-linejoin:round;stroke-miterlimit:10;}
]]>
</style>
<path id="rocket" class="st0" d="M50.524,70.466c0,0,13.624-3.972,24.995-23.13C86.891,28.177,88.841,2.62,88.841,2.62
	S60.173,7.084,43.929,33.012c-16.242,25.927-15.574,35.464-9.34,40.218c5.717,4.36,13.201,2.644,3.348-4.903
	c-8.945-6.854-27.179-4.742-27.179-4.742s3.859-12.418,13.034-19.91c8.456-6.906,21.323-4.229,30.901,3.14
	c9.579,7.368,16.424,18.615,12.68,27.879c-3.832,9.477-15.329,16.781-15.329,16.781s-1.561-13.747-7.281-12.652
	c-6.203,1.188-7.479,6.318-8.843,9.691c-2.217,5.484-5.839,4.971-5.839,4.971s-0.998-4.075-4.304-4.088
	c-3.305-0.013-10.471,7.981-10.471,7.981s7.648-12.268,4.106-13.41c-3.544-1.143-6.664,0.841-6.664,0.841s2.104-5.044,4.697-8.42
	c2.593-3.376,5.268-4.641,5.268-4.641"/>
</svg>
