<svg enable-background="new 0 0 76.878 74.828" height="74.828" viewBox="0 0 76.878 74.828" width="76.878" xmlns="http://www.w3.org/2000/svg"><path d="m50.884 73.386s-32.011 1.978-42.621-2.428c-8.904-3.698-8.902-8.722-3.867-21.94s8.362-18.253 8.902-26.795c.445-7.064 7.458-21.104 19.782-20.951 7.193.09 9.365 24.907 4.495 24.907-5.935 0-3.866-25.437 4.047-25.177 13.668.45 20.743 13.62 21.672 20.861 1.259 9.802-5.441 21.917-15.152 21.58-9.65-.335-8.386-7.779-15.849-10.746-8.535-3.392-15.331.27-13.893 6.475 1.438 6.204 12.466 5.857 16.793 1.012 3.372-3.777 6.041-9.792 14.162-8.969 16.41 1.664 5.307 32.372-1.078 32.821-6.385.448-27.879.538-24.548-2.249 9.351-7.824 24.376-16.819 13.667-16.905-11.24-.091 5.755 12.049 16.725 23.108 4.053 4.087 10.05 4.193 16.096 2.698 7.644-1.889 6.835-8.451 1.799-18.163-5.035-9.711-7.103-13.308-7.103-13.308-3.419-5.307-7.555-11.42-14.479-12.14s-8.901 3.146-12.499 2.876c-3.597-.27-6.833-3.146-11.869-3.057-5.035.09-12.104 5.146-12.521 10.318-.741 9.194 7.486 20.523 7.486 20.523" style="fill:none;stroke:#010202;stroke-width:2;stroke-linecap:round;stroke-linejoin:round;stroke-miterlimit:10"/></svg>