<?xml version="1.0" encoding="utf-8"?>
<!-- Generator: Adobe Illustrator 16.0.0, SVG Export Plug-In . SVG Version: 6.00 Build 0)  -->
<!DOCTYPE svg PUBLIC "-//W3C//DTD SVG 1.1//EN" "http://www.w3.org/Graphics/SVG/1.1/DTD/svg11.dtd">
<svg version="1.1" id="Calque_1" xmlns="http://www.w3.org/2000/svg" xmlns:xlink="http://www.w3.org/1999/xlink" x="0px" y="0px"
	 width="76.878px" height="74.828px" viewBox="0 0 76.878 74.828" style="enable-background:new 0 0 76.878 74.828;"
	 xml:space="preserve">
<style type="text/css">
<![CDATA[
	.st0{fill:none;stroke:#010202;stroke-width:2;stroke-linecap:round;stroke-linejoin:round;stroke-miterlimit:10;}
]]>
</style>
<path id="the_force_is_with_you" class="st0" d="M50.884,73.386c0,0-32.011,1.978-42.621-2.428
	c-8.904-3.698-8.902-8.722-3.867-21.94c5.035-13.218,8.362-18.253,8.902-26.795c0.445-7.064,7.458-21.104,19.782-20.951
	c7.193,0.09,9.365,24.907,4.495,24.907c-5.935,0-3.866-25.437,4.047-25.177c13.668,0.45,20.743,13.62,21.672,20.861
	c1.259,9.802-5.441,21.917-15.152,21.58c-9.65-0.335-8.386-7.779-15.849-10.746c-8.535-3.392-15.331,0.27-13.893,6.475
	c1.438,6.204,12.466,5.857,16.793,1.012c3.372-3.777,6.041-9.792,14.162-8.969c16.41,1.664,5.307,32.372-1.078,32.821
	c-6.385,0.448-27.879,0.538-24.548-2.249c9.351-7.824,24.376-16.819,13.667-16.905c-11.24-0.091,5.755,12.049,16.725,23.108
	c4.053,4.087,10.05,4.193,16.096,2.698c7.644-1.889,6.835-8.451,1.799-18.163c-5.035-9.711-7.103-13.308-7.103-13.308
	c-3.419-5.307-7.555-11.42-14.479-12.14s-8.901,3.146-12.499,2.876c-3.597-0.27-6.833-3.146-11.869-3.057
	c-5.035,0.09-12.104,5.146-12.521,10.318c-0.741,9.194,7.486,20.523,7.486,20.523"/>
</svg>
