<?xml version="1.0" encoding="utf-8"?>
<!-- Generator: Adobe Illustrator 16.0.0, SVG Export Plug-In . SVG Version: 6.00 Build 0)  -->
<!DOCTYPE svg PUBLIC "-//W3C//DTD SVG 1.1//EN" "http://www.w3.org/Graphics/SVG/1.1/DTD/svg11.dtd">
<svg version="1.1" id="Calque_1" xmlns="http://www.w3.org/2000/svg" xmlns:xlink="http://www.w3.org/1999/xlink" x="0px" y="0px"
	 width="100px" height="100px" viewBox="0 0 100 100" style="enable-background:new 0 0 100 100;" xml:space="preserve">
<style type="text/css">
<![CDATA[
	.st0{fill:none;stroke:#000000;stroke-width:2;stroke-linecap:round;stroke-linejoin:round;stroke-miterlimit:10;}
]]>
</style>
<path id="settings" class="st0" d="M18.411,49.277c0,0-9.009-0.532-3.699-13.09c3.359-7.941,4.885-9.606,10.564-7.41
	c6.586,2.546,10.539-3.146,9.763-8.056c-0.775-4.909,0.209-8.03,10.456-8.287c10.865-0.274,11.402,2.714,11.588,7.863
	c0.187,5.149,5.029,5.125,10.666,2.431c5.637-2.693,8.262-2.609,13.026,3.826c4.766,6.437,6.715,10.575,2.444,13.277
	c-4.268,2.701-9.32,6.752-2.528,9.64c6.792,2.887,8.657,6.194,4.836,13.578c-3.822,7.385-7.192,10.629-11.603,8.747
	c-4.409-1.883-8.561,1.508-7.711,6.188c0.85,4.682-1.034,8.304-9.311,9.7c-8.275,1.395-13.5-1.352-13.781-7.504
	c-0.281-6.154-5.803-5.629-10.163-2.479c-4.361,3.15-8.615,1.021-13.462-5.204c-4.847-6.225,17.969-49.208,38.838-33.8
	c17.265,12.746-4.715,33.142-16.107,21.669C29.863,47.915,50.055,33.74,58.131,45.38"/>
</svg>
