<svg enable-background="new 0 0 49.579 85.923" height="85.923" viewBox="0 0 49.579 85.923" width="49.579" xmlns="http://www.w3.org/2000/svg"><path d="m11.934 69.984s18.844-.465 18.844 5.535-8.962 6-8.962 0c0-5 14.626-3.75 17.407-5.737 4.137-2.958 3.619-36.175 3.619-48.586 0-12.408-6.205-11.566-17.681-11.566s-17.823-1.41-17.823 5.484c0 6.895-1.38 50.292-1.38 61.667 0 9.909 28.267 7.994 36.116 7.994s6.399-49.384 6.399-65.646c0-16.26-5.204-17.861-20.799-17.861s-19.303-2.06-23.44 5.242c-4.136 7.303-2.224 37.202-3.101 59.936-.361 9.381-.094 13.543 2.164 15.746 2.489 2.426 4.472 2.723 4.472 2.723" style="fill:none;stroke:#010202;stroke-width:2;stroke-linecap:round;stroke-linejoin:round;stroke-miterlimit:10"/></svg>