<svg enable-background="new 0 0 64.167 94.712" height="94.712" viewBox="0 0 64.167 94.712" width="64.167" xmlns="http://www.w3.org/2000/svg"><path d="m12.068 48.826s-2.938-10.27 3.563-8.934c5.534 1.139 8.643.328 8.643-6.14 0-6.47-4.474-7.354-8.339-5.838-4.58 1.796-5.181.151-5.181-7.328 0-8.214 4.043-6.268 10.614-6.268 1.582 0 5.256-.81 3.581-3.447-1.634-2.574-3.585-9.871 5.922-9.871 11.203 0 6.582 8.016 5.554 10.363-1.208 2.753 2.818 2.562 4.958 2.552 5.535-.026 9.583-1.163 9.583 5.736 0 6.898.069 8.801-5.008 7.581-5.788-1.389-7.733 2.274-7.657 7.052.076 4.774 2.805 6.747 8.036 5.078 5.746-1.831 6.292 13.192 1.895 13.192-8.339 0-13.728 1.858-11.22 5.837 2.199 3.487 3.031 9.553-5.231 9.553-9.401 0-7.05-6.142-5.762-9.249 2.221-5.356-3.412-5.459-8.719-5.459s-4.928 1.743-4.473 7.354c.272 3.344 2.275 9.022-3.185 6.142-2.828-1.494-8.642-1.061-8.642 6.671 0 7.581 6.576 5.654 10.766 4.396 3.033-.909.986 4.702.986 9.023 0 6.898 2.123 6.443 10.386 6.443 8.794 0-5.156-11.522 8.643-11.522 15.314 0-.909 11.522 9.552 11.825 8.943.26 10.008 1.062 10.008-7.581 0-12.13.152-7.96 4.549-6.367 4.398 1.592 7.278-1.748 7.278-7.208 0-7.58-3.64-7.348-7.431-5.983-5.009 1.803-5.352-.155-5.154-9.549" style="fill:none;stroke:#010202;stroke-width:2;stroke-linecap:round;stroke-linejoin:round;stroke-miterlimit:10"/></svg>