<svg enable-background="new 0 0 100 100" height="100" viewBox="0 0 100 100" width="100" xmlns="http://www.w3.org/2000/svg"><path d="m50.524 70.466s13.624-3.972 24.995-23.13c11.372-19.159 13.322-44.716 13.322-44.716s-28.668 4.464-44.912 30.392c-16.242 25.927-15.574 35.464-9.34 40.218 5.717 4.36 13.201 2.644 3.348-4.903-8.945-6.854-27.179-4.742-27.179-4.742s3.859-12.418 13.034-19.91c8.456-6.906 21.323-4.229 30.901 3.14 9.579 7.368 16.424 18.615 12.68 27.879-3.832 9.477-15.329 16.781-15.329 16.781s-1.561-13.747-7.281-12.652c-6.203 1.188-7.479 6.318-8.843 9.691-2.217 5.484-5.839 4.971-5.839 4.971s-.998-4.075-4.304-4.088c-3.305-.013-10.471 7.981-10.471 7.981s7.648-12.268 4.106-13.41c-3.544-1.143-6.664.841-6.664.841s2.104-5.044 4.697-8.42 5.268-4.641 5.268-4.641" style="fill:none;stroke:#000;stroke-width:2;stroke-linecap:round;stroke-linejoin:round;stroke-miterlimit:10"/></svg>