<svg enable-background="new 0 0 100 100" height="100" viewBox="0 0 100 100" width="100" xmlns="http://www.w3.org/2000/svg"><path d="m18.411 49.277s-9.009-.532-3.699-13.09c3.359-7.941 4.885-9.606 10.564-7.41 6.586 2.546 10.539-3.146 9.763-8.056-.775-4.909.209-8.03 10.456-8.287 10.865-.274 11.402 2.714 11.588 7.863.187 5.149 5.029 5.125 10.666 2.431 5.637-2.693 8.262-2.609 13.026 3.826 4.766 6.437 6.715 10.575 2.444 13.277-4.268 2.701-9.32 6.752-2.528 9.64 6.792 2.887 8.657 6.194 4.836 13.578-3.822 7.385-7.192 10.629-11.603 8.747-4.409-1.883-8.561 1.508-7.711 6.188.85 4.682-1.034 8.304-9.311 9.7-8.275 1.395-13.5-1.352-13.781-7.504-.281-6.154-5.803-5.629-10.163-2.479-4.361 3.15-8.615 1.021-13.462-5.204s17.969-49.208 38.838-33.8c17.265 12.746-4.715 33.142-16.107 21.669-12.364-12.451 7.828-26.626 15.904-14.986" style="fill:none;stroke:#000;stroke-width:2;stroke-linecap:round;stroke-linejoin:round;stroke-miterlimit:10"/></svg>